<?xml version="1.0" standalone="no"?>
<!DOCTYPE svg PUBLIC "-//W3C//DTD SVG 20010904//EN"
 "http://www.w3.org/TR/2001/REC-SVG-20010904/DTD/svg10.dtd">
<svg version="1.0" xmlns="http://www.w3.org/2000/svg"
 width="328.000000pt" height="145.000000pt" viewBox="0 0 328.000000 145.000000"
 preserveAspectRatio="xMidYMid meet">
<metadata>
Created by potrace 1.16, written by Peter Selinger 2001-2019
</metadata>
<g transform="translate(0.000000,145.000000) scale(0.100000,-0.100000)"
fill="#000000" stroke="none">
<path d="M892 860 c-41 -25 -66 -79 -53 -113 5 -13 33 -39 61 -56 46 -29 51
-35 48 -64 -4 -44 -49 -67 -87 -46 -29 16 -40 61 -20 85 17 20 -14 19 -35 -2
-22 -21 -20 -57 3 -85 26 -32 108 -34 141 -4 55 50 45 100 -30 146 -62 38 -68
72 -19 113 40 34 74 35 65 4 -16 -54 -18 -88 -7 -88 13 0 41 59 41 84 0 22
-28 46 -53 46 -12 0 -37 -9 -55 -20z"/>
<path d="M1283 872 c-53 -2 -73 -7 -73 -16 0 -17 22 -26 66 -26 l34 0 -29 -47
c-20 -31 -40 -50 -62 -57 -41 -14 -51 -35 -13 -28 21 4 26 2 21 -9 -3 -8 -16
-38 -28 -67 -17 -39 -20 -55 -12 -63 19 -19 43 -2 43 28 1 44 36 113 58 113
11 0 25 7 32 15 11 13 8 15 -14 15 l-26 0 21 43 c12 23 31 55 41 70 11 16 19
29 17 30 -2 1 -37 1 -76 -1z"/>
<path d="M1853 869 c-18 -5 -33 -14 -33 -19 0 -13 16 -13 42 1 19 10 20 9 13
-7 -4 -11 -28 -77 -53 -147 -38 -107 -43 -130 -31 -138 23 -15 25 -12 47 65
21 72 23 74 59 81 124 23 165 120 68 161 -39 16 -65 17 -112 3z m109 -26 c27
-24 23 -68 -9 -92 -28 -23 -70 -37 -79 -28 -4 3 4 35 16 71 23 70 38 80 72 49z"/>
<path d="M2391 841 c-24 -33 -81 -151 -81 -166 0 -18 -61 -85 -77 -85 -11 0
-13 5 -8 18 19 44 17 73 -6 98 -13 14 -23 27 -21 30 1 2 -1 3 -5 3 -5 -1 -13
-19 -19 -40 -12 -38 -78 -118 -89 -107 -3 3 1 29 11 57 13 41 14 54 4 66 -40
48 -145 -41 -138 -117 4 -39 30 -49 60 -21 15 13 22 15 25 6 14 -40 109 18
132 80 6 15 16 27 22 27 7 0 9 -9 4 -27 -4 -16 -7 -41 -8 -58 -2 -25 2 -31 22
-33 13 -2 36 6 52 17 28 21 28 21 31 0 5 -36 21 -25 52 36 17 33 39 61 49 63
27 5 21 -27 -8 -40 -20 -9 -23 -16 -18 -37 8 -35 22 -51 43 -51 22 0 70 54 70
78 0 12 -6 8 -19 -12 -29 -43 -48 -51 -61 -25 -13 23 -14 22 18 38 42 22 18
91 -27 76 -11 -3 -29 -20 -41 -38 l-22 -32 7 30 c4 16 24 48 45 71 37 40 58
93 45 114 -10 17 -23 12 -44 -19z m5 -63 c-9 -12 -16 -19 -16 -15 0 11 24 47
28 42 2 -2 -3 -14 -12 -27z m-316 -86 c0 -25 -58 -102 -77 -102 -21 0 -9 45
23 88 27 35 54 42 54 14z"/>
<path d="M1074 711 c-30 -18 -64 -74 -64 -103 0 -20 32 -48 54 -48 26 0 73 27
90 52 28 40 17 42 -20 4 -24 -24 -43 -36 -57 -34 -34 5 -32 32 4 49 18 7 41
26 52 41 17 22 18 30 7 43 -16 20 -28 19 -66 -4z m46 -15 c0 -15 -58 -62 -66
-53 -5 5 50 67 60 67 3 0 6 -6 6 -14z"/>
<path d="M1384 711 c-30 -18 -64 -74 -64 -103 0 -20 32 -48 56 -48 10 0 34 9
52 20 26 16 32 17 32 5 0 -27 18 -16 49 29 26 37 48 56 67 56 3 0 4 -21 2 -47
-3 -45 -1 -48 23 -51 29 -3 69 36 69 67 0 9 -8 2 -20 -16 -11 -18 -27 -33 -35
-33 -18 0 -18 2 -4 34 28 62 -19 100 -68 54 -20 -18 -23 -19 -23 -5 0 25 -29
20 -39 -6 -15 -38 -71 -88 -95 -85 -33 5 -31 32 5 49 18 7 41 26 52 41 17 22
18 30 7 43 -16 20 -28 19 -66 -4z m46 -15 c0 -15 -58 -62 -66 -53 -5 5 50 67
60 67 3 0 6 -6 6 -14z"/>
</g>
</svg>
